<svg width="202" height="38" viewBox="0 0 202 38" fill="none" xmlns="http://www.w3.org/2000/svg">
<path d="M33.4567 21.6863C33.1759 22.1454 32.4412 22.7454 32.109 22.988C33.4872 22.7149 34.3279 21.7598 34.6253 21.4996C34.8634 21.2914 35.4493 20.4049 35.7125 19.9877L37.2906 17.7807C37.2449 17.5888 37.0244 17.2636 36.5074 17.4985C35.9904 17.7333 35.592 18.2557 35.4573 18.4876L34.4218 20.1914C33.9649 21.0436 33.5797 21.4778 33.4567 21.6863Z" fill="url(#paint0_linear_1991_8026)"/>
<path d="M31.7663 21.5398C31.2457 22.6252 30.0668 23.5894 29.5424 23.9358C31.5661 23.526 32.2153 22.5178 32.5653 22.1881C32.8453 21.9244 33.3607 20.9654 33.5834 20.519L34.7956 18.293C34.7785 18.2 34.5802 18.09 33.9236 18.3939C33.2061 19.0533 32.417 20.1829 31.7663 21.5398Z" fill="url(#paint1_linear_1991_8026)"/>
<path d="M25.3843 22.1403C23.4822 22.6377 20.0389 22.7001 17.7535 25.3326C16.1983 27.1242 14.5613 30.9936 13.9259 34.1703C14.9219 34.1703 17.3087 34.2218 19.5216 34.1703C20.3459 30.9078 20.578 30.1031 21.6405 29.4802C22.7029 28.8572 25.7008 28.3528 27.0669 28.1784C27.9031 28.0717 29.6991 28.1373 30.6776 27.5836C31.6049 26.7683 34.681 24.8117 35.0656 24.5693C35.3732 24.3754 35.8587 23.8638 36.063 23.6322L39.4477 18.7833C39.547 18.6618 39.6865 18.38 39.4501 18.2256C38.9217 17.8608 38.1949 18.2668 37.8975 18.5154C37.4365 18.984 36.3216 20.1855 35.5503 21.242C34.7788 22.2985 33.4914 23.0926 32.9441 23.3576C30.9879 24.2905 29.2427 24.7887 28.8941 24.7872C28.6674 24.821 27.877 24.8584 27.4994 24.851C26.9941 24.8082 25.8748 24.8476 25.4404 25.3477C26.0391 23.921 27.9584 23.4759 28.6564 23.2696C29.215 23.1047 30.0785 22.2531 30.4404 21.8479C30.6987 21.2505 30.9952 20.0828 30.1162 20.1906C29.3746 20.815 26.6525 21.7505 25.3843 22.1403Z" fill="url(#paint2_linear_1991_8026)"/>
<path fill-rule="evenodd" clip-rule="evenodd" d="M18.1795 21.4934C18.2185 21.6526 18.3635 21.7215 18.4455 21.7643C18.5276 21.8071 18.704 21.8297 18.796 21.8364C18.8881 21.8431 19.0828 21.8187 19.1594 21.767C19.2359 21.7154 19.3271 21.6394 19.3553 21.5516L21.1549 15.076L21.8932 16.5356C21.8932 16.5356 22.0191 16.7253 22.1335 16.8104C22.2129 16.8695 22.1851 16.8788 22.3568 16.9304C22.5285 16.9821 42.2755 16.9304 42.2755 16.9304C42.2755 16.8116 42.2755 16.5884 42.2755 16.5884V16.3136L42.2756 16.0905C42.2756 16.0905 42.2755 15.85 42.2755 15.7638L22.8376 15.7801L21.6871 13.3914C21.6871 13.3914 21.4614 13.0243 21.2235 12.9813C21.0665 12.9529 20.9442 12.9167 20.7865 12.9821C20.6945 13.0202 20.6397 13.0672 20.5784 13.1296C20.5173 13.1921 20.4557 13.2532 20.429 13.3361L18.9523 18.489L17.1182 7.31962C17.1026 7.22768 16.8846 7.00635 16.8151 6.9442C16.7456 6.88196 16.6571 6.84526 16.564 6.84C16.4709 6.83466 16.3788 6.86111 16.3027 6.915C16.2266 6.96898 15.9994 7.18447 15.9734 7.27407L14.2276 16.7361L13.01 13.6935C12.9878 13.616 12.8403 13.4438 12.7791 13.3914C12.7179 13.339 12.6426 13.3058 12.5627 13.2957C12.4828 13.2857 12.4017 13.2993 12.3293 13.3349C12.2571 13.3705 12.1282 13.5296 12.0875 13.5991L10.8645 15.7976H2.96258C2.71313 15.4367 2.64038 15.3158 2.33521 15.1165C2.03003 14.9173 1.66312 14.8352 1.30213 14.8854C0.94114 14.9355 0.610519 15.1145 0.371167 15.3894C0.131899 15.6643 0 16.0165 0 16.3809C0 16.7454 0.131899 17.0975 0.371167 17.3723C0.610519 17.6472 0.94114 17.8263 1.30213 17.8764C1.66312 17.9265 2.03003 17.8444 2.33521 17.6452C2.64038 17.4461 2.76461 17.2912 2.96258 16.9642L11.2717 16.9299C11.3435 16.93 11.4142 16.9113 11.4766 16.8757C11.539 16.8401 11.5909 16.7888 11.6273 16.7269L12.4826 15.3607L13.8657 18.8267C13.8903 18.9126 14.011 18.9882 14.0824 19.042C14.1538 19.0958 14.3438 19.125 14.4332 19.125C14.5226 19.125 14.6857 19.125 14.7839 19.0764C14.9217 19.0083 14.976 18.9126 15.0006 18.8267L16.4698 10.623L18.1795 21.4934ZM2.19638 16.3815C2.19638 16.5634 2.12414 16.7379 1.99549 16.8666C1.86685 16.9952 1.69232 17.0675 1.51036 17.0675C1.32841 17.0675 1.15388 16.9952 1.02523 16.8666C0.89659 16.7379 0.824259 16.5634 0.824259 16.3815C0.824259 16.1995 0.89659 16.025 1.02523 15.8963C1.15388 15.7677 1.32841 15.6954 1.51036 15.6954C1.69232 15.6954 1.86685 15.7677 1.99549 15.8963C2.12414 16.025 2.19638 16.1995 2.19638 16.3815Z" fill="#E85D27"/>
<path d="M5.20295 15.1501H7.22915C7.02884 14.8124 6.56982 14.0031 6.33631 13.4673C6.10271 12.9316 5.72137 11.9201 5.5979 10.8745C5.41494 9.32489 5.50663 8.35964 6.07869 6.90801C6.56081 5.68464 7.00272 5.02064 7.95037 4.10912C8.68762 3.39999 9.182 3.05427 10.1139 2.63238C11.4476 2.02862 12.3432 1.9114 13.8057 1.97989C15.198 2.04513 16.0183 2.25061 17.2571 2.89C18.0938 3.3219 18.5163 3.66612 19.2145 4.298C20.2085 5.19742 20.9888 6.36424 21.3609 6.97667C21.6357 6.55887 22.2137 5.5655 22.9406 4.81316C23.9025 3.81746 24.567 3.32991 25.8254 2.75259C27.0744 2.17953 27.8683 1.93635 29.2424 1.91123C30.8523 1.88178 31.8401 2.11746 33.2433 2.90718C34.6523 3.70016 35.3762 4.42297 36.1795 5.82621C36.9296 7.13644 37.1445 8.04404 37.2097 9.55231C37.3081 11.826 36.1223 14.1027 35.4754 15.1157H37.5532C38.1541 14.2228 38.6267 13.2417 38.9784 11.9219C39.4348 10.2089 39.571 9.12617 39.2187 7.3888C38.7934 5.29128 38.1092 4.07174 36.5572 2.59809C35.1888 1.29871 34.1368 0.741921 32.2988 0.314358C30.4162 -0.123718 29.2054 -0.0336169 27.3536 0.520339C25.778 0.991701 24.9124 1.47858 23.6618 2.54653C22.5858 3.46548 21.7673 4.67576 21.3609 5.34542C21.1434 4.88182 20.1257 3.53706 19.0771 2.63238C17.499 1.27093 16.3702 0.590833 14.3208 0.211324C11.7395 -0.266796 9.93435 0.0362113 7.70994 1.43044C5.93753 2.54136 5.04469 3.56601 4.20708 5.48283C3.54175 7.0052 3.4197 8.01184 3.46876 9.67253C3.535 11.9153 4.61346 14.1942 5.20295 15.1501Z" fill="url(#paint3_linear_1991_8026)"/>
<path d="M8.87768 17.6227H6.8172C8.28702 20.0403 13.4853 24.7544 15.9006 26.8092C15.9865 26.6718 16.2852 26.1807 16.7936 25.3154C13.2357 22.9251 10.0339 19.191 8.87768 17.6227Z" fill="#EA5525"/>
<path d="M1.44268 17.2054C1.89788 17.2054 2.26689 16.8364 2.26689 16.3812C2.26689 15.926 1.89788 15.5569 1.44268 15.5569C0.98748 15.5569 0.618469 15.926 0.618469 16.3812C0.618469 16.8364 0.98748 17.2054 1.44268 17.2054Z" fill="#EC5C27"/>
<path d="M65.8482 19.9106H63.1884L61.5605 17.482H50.7877L49.1688 19.9106H46.5L55.0042 7.15433H57.344L65.8482 19.9106ZM60.0927 15.267L56.1786 9.39599L52.2645 15.267H60.0927ZM73.9472 19.9106H71.7322V14.1195L63.9573 7.15433H67.2931L72.8441 12.1537L78.386 7.15433H81.7219L73.9472 14.1195V19.9106ZM96.9997 19.9106H87.2768C86.6243 19.9106 86.0285 19.7534 85.4886 19.4392C84.955 19.1188 84.5278 18.692 84.2078 18.1581C83.8933 17.6185 83.7363 17.0224 83.7363 16.3702V7.15433H85.9514V16.3702C85.9514 16.7438 86.0789 17.058 86.3337 17.313C86.5887 17.5681 86.9032 17.6956 87.2768 17.6956H96.9997C97.3733 17.6956 97.6875 17.5681 97.9425 17.313C98.1976 17.058 98.3251 16.7438 98.3251 16.3702V7.15433H100.54V16.3702C100.54 17.0224 100.38 17.6185 100.06 18.1581C99.7394 18.692 99.3125 19.1188 98.7789 19.4392C98.2449 19.7534 97.6519 19.9106 96.9997 19.9106ZM116.147 19.9106H106.718C106.119 19.9106 105.57 19.7652 105.072 19.4748C104.574 19.1842 104.177 18.7957 103.88 18.3094C103.584 17.8231 103.435 17.2864 103.435 16.6992V16.3968H105.65V16.6992C105.65 16.984 105.751 17.2211 105.953 17.4108C106.16 17.6006 106.415 17.6956 106.718 17.6956H116.147C116.449 17.6956 116.702 17.6006 116.903 17.4108C117.111 17.2211 117.215 16.984 117.215 16.6992V15.6406C117.215 15.3561 117.111 15.1187 116.903 14.929C116.702 14.7392 116.449 14.6445 116.147 14.6445H106.718C106.119 14.6445 105.57 14.499 105.072 14.2084C104.574 13.918 104.177 13.5296 103.88 13.0433C103.584 12.557 103.435 12.0172 103.435 11.4241V10.3744C103.435 9.78137 103.584 9.24183 103.88 8.75555C104.177 8.26927 104.574 7.88082 105.072 7.59016C105.57 7.29951 106.119 7.15433 106.718 7.15433H116.147C116.752 7.15433 117.301 7.29951 117.793 7.59016C118.291 7.88082 118.688 8.26927 118.985 8.75555C119.281 9.24183 119.43 9.78137 119.43 10.3744V10.6679H117.215V10.3744C117.215 10.0897 117.111 9.85256 116.903 9.66281C116.702 9.46719 116.449 9.36937 116.147 9.36937H106.718C106.415 9.36937 106.16 9.46719 105.953 9.66281C105.751 9.85256 105.65 10.0897 105.65 10.3744V11.4241C105.65 11.7089 105.751 11.9491 105.953 12.1447C106.16 12.3344 106.415 12.4295 106.718 12.4295H116.147C116.752 12.4295 117.301 12.5746 117.793 12.8653C118.291 13.1559 118.688 13.5444 118.985 14.0307C119.281 14.5111 119.43 15.0475 119.43 15.6406V16.6992C119.43 17.2864 119.281 17.8231 118.985 18.3094C118.688 18.7957 118.291 19.1842 117.793 19.4748C117.301 19.7652 116.752 19.9106 116.147 19.9106ZM140.582 19.9106H131.153C130.554 19.9106 130.005 19.7652 129.507 19.4748C129.009 19.1842 128.612 18.7957 128.315 18.3094C128.019 17.8231 127.87 17.2864 127.87 16.6992V16.3968H130.085V16.6992C130.085 16.984 130.186 17.2211 130.388 17.4108C130.596 17.6006 130.851 17.6956 131.153 17.6956H140.582C140.885 17.6956 141.137 17.6006 141.339 17.4108C141.546 17.2211 141.65 16.984 141.65 16.6992V15.6406C141.65 15.3561 141.546 15.1187 141.339 14.929C141.137 14.7392 140.885 14.6445 140.582 14.6445H131.153C130.554 14.6445 130.005 14.499 129.507 14.2084C129.009 13.918 128.612 13.5296 128.315 13.0433C128.019 12.557 127.87 12.0172 127.87 11.4241V10.3744C127.87 9.78137 128.019 9.24183 128.315 8.75555C128.612 8.26927 129.009 7.88082 129.507 7.59016C130.005 7.29951 130.554 7.15433 131.153 7.15433H140.582C141.187 7.15433 141.736 7.29951 142.228 7.59016C142.726 7.88082 143.123 8.26927 143.42 8.75555C143.717 9.24183 143.865 9.78137 143.865 10.3744V10.6679H141.65V10.3744C141.65 10.0897 141.546 9.85256 141.339 9.66281C141.137 9.46719 140.885 9.36937 140.582 9.36937H131.153C130.851 9.36937 130.596 9.46719 130.388 9.66281C130.186 9.85256 130.085 10.0897 130.085 10.3744V11.4241C130.085 11.7089 130.186 11.9491 130.388 12.1447C130.596 12.3344 130.851 12.4295 131.153 12.4295H140.582C141.187 12.4295 141.736 12.5746 142.228 12.8653C142.726 13.1559 143.123 13.5444 143.42 14.0307C143.717 14.5111 143.865 15.0475 143.865 15.6406V16.6992C143.865 17.2864 143.717 17.8231 143.42 18.3094C143.123 18.7957 142.726 19.1842 142.228 19.4748C141.736 19.7652 141.187 19.9106 140.582 19.9106ZM162.381 19.9106H146.786V7.15433H162.381V9.36937H149.002V12.4295H160.753V14.6445H149.002V17.6956H162.381V19.9106ZM174.803 19.9106H172.588V9.36937H165.293V7.15433H182.097V9.36937H174.803V19.9106ZM198.131 19.9106H188.408C187.756 19.9106 187.16 19.7534 186.62 19.4392C186.087 19.1188 185.66 18.692 185.339 18.1581C185.025 17.6185 184.868 17.0224 184.868 16.3702V7.15433H187.083V16.3702C187.083 16.7438 187.21 17.058 187.465 17.313C187.72 17.5681 188.035 17.6956 188.408 17.6956H198.131C198.505 17.6956 198.819 17.5681 199.074 17.313C199.329 17.058 199.457 16.7438 199.457 16.3702V7.15433H201.672V16.3702C201.672 17.0224 201.512 17.6185 201.191 18.1581C200.871 18.692 200.444 19.1188 199.91 19.4392C199.377 19.7534 198.784 19.9106 198.131 19.9106Z" fill="black"/>
<path d="M58.6647 32.2914C58.5714 32.1883 58.4682 32.0962 58.3553 32.0152C58.2423 31.9317 58.1243 31.8618 58.0015 31.8051C57.8788 31.7484 57.7509 31.7058 57.6183 31.6759C57.4879 31.644 57.3575 31.6282 57.2275 31.6282C56.9696 31.6282 56.7288 31.6772 56.505 31.7757C56.2812 31.8737 56.086 32.008 55.9189 32.1772C55.7544 32.3469 55.624 32.5472 55.5285 32.7782C55.4326 33.0067 55.3844 33.2526 55.3844 33.5152C55.3844 33.7756 55.4326 34.0215 55.5285 34.2526C55.624 34.481 55.7544 34.6813 55.9189 34.8531C56.086 35.0228 56.2812 35.1566 56.505 35.2551C56.7288 35.3531 56.9696 35.4025 57.2275 35.4025C57.4879 35.4025 57.7437 35.3471 57.9943 35.2367C58.2449 35.1259 58.4683 34.975 58.6647 34.7832L59.1809 35.3211C59.0505 35.449 58.9068 35.5658 58.7496 35.6715C58.5948 35.7746 58.4316 35.8633 58.2594 35.937C58.0876 36.0108 57.9107 36.0683 57.7287 36.1101C57.5467 36.1493 57.3651 36.1689 57.1831 36.1689C56.8046 36.1689 56.4522 36.1016 56.1252 35.9664C55.7987 35.8288 55.5149 35.6408 55.274 35.4025C55.0332 35.1643 54.844 34.8838 54.7063 34.562C54.5686 34.2402 54.5 33.8937 54.5 33.5228C54.5 33.2769 54.532 33.0425 54.5959 32.8187C54.6598 32.5928 54.7493 32.3827 54.8649 32.1883C54.9804 31.9944 55.1193 31.8175 55.2813 31.6576C55.4458 31.4978 55.6291 31.3627 55.8307 31.2523C56.0319 31.1393 56.2497 31.0519 56.4828 30.9906C56.7164 30.9292 56.9598 30.8985 57.2126 30.8985C57.3946 30.8985 57.5753 30.9168 57.7543 30.9539C57.9363 30.9906 58.1106 31.0434 58.2777 31.112C58.4474 31.1811 58.6072 31.2646 58.7572 31.3627C58.9094 31.4611 59.0484 31.5715 59.1737 31.6947L58.6647 32.2914ZM62.0542 32.1661C62.3564 32.1661 62.633 32.2143 62.8836 32.3102C63.1342 32.4061 63.3491 32.5412 63.5285 32.7155C63.708 32.8899 63.8465 33.0987 63.945 33.3421C64.0455 33.5855 64.0963 33.8545 64.0963 34.1494C64.0963 34.4439 64.0455 34.7146 63.945 34.9601C63.8465 35.2035 63.708 35.4123 63.5285 35.5867C63.3491 35.761 63.1342 35.8974 62.8836 35.9958C62.633 36.0917 62.3564 36.1395 62.0542 36.1395C61.7494 36.1395 61.4719 36.0917 61.2213 35.9958C60.9707 35.8974 60.7541 35.761 60.5726 35.5867C60.3931 35.4123 60.2529 35.2035 60.1523 34.9601C60.0538 34.7146 60.0048 34.4439 60.0048 34.1494C60.0048 33.8545 60.0538 33.5855 60.1523 33.3421C60.2529 33.0987 60.3931 32.8899 60.5726 32.7155C60.7541 32.5412 60.9707 32.4061 61.2213 32.3102C61.4719 32.2143 61.7494 32.1661 62.0542 32.1661ZM62.0542 32.8519C61.8773 32.8519 61.7149 32.8839 61.5678 32.9478C61.4204 33.0118 61.2938 33.1013 61.1881 33.2168C61.0823 33.3323 61.0001 33.47 60.9413 33.6294C60.882 33.7892 60.8526 33.9648 60.8526 34.1566C60.8526 34.3506 60.882 34.5288 60.9413 34.6912C61.0001 34.8531 61.0823 34.9921 61.1881 35.1076C61.2938 35.2205 61.4204 35.3092 61.5678 35.3731C61.7149 35.4366 61.8773 35.4686 62.0542 35.4686C62.2285 35.4686 62.3883 35.4366 62.5333 35.3731C62.6807 35.3092 62.8073 35.2205 62.913 35.1076C63.0187 34.9921 63.101 34.8531 63.1598 34.6912C63.2191 34.5288 63.2485 34.3506 63.2485 34.1566C63.2485 33.9648 63.2191 33.7892 63.1598 33.6294C63.101 33.47 63.0187 33.3323 62.913 33.2168C62.8073 33.1013 62.6807 33.0118 62.5333 32.9478C62.3883 32.8839 62.2285 32.8519 62.0542 32.8519ZM68.4008 33.8988C68.4008 33.7462 68.3791 33.6098 68.3347 33.4896C68.293 33.3668 68.2316 33.2633 68.1502 33.1797C68.0692 33.094 67.9699 33.0288 67.8518 32.9845C67.7363 32.9402 67.605 32.9184 67.4576 32.9184C67.2952 32.9206 67.149 32.95 67.019 33.0067C66.8885 33.0608 66.7756 33.1371 66.6797 33.2351C66.5863 33.3336 66.51 33.4504 66.4512 33.5855C66.395 33.7181 66.3591 33.8643 66.3442 34.0241V36.1101H65.4964V32.196H66.3442V32.944C66.4845 32.6712 66.6763 32.4747 66.9192 32.3541C67.1652 32.2313 67.455 32.1687 67.7892 32.1661C68.0176 32.1661 68.2218 32.2019 68.4008 32.2731C68.5828 32.3422 68.7363 32.4415 68.8616 32.5719C68.9869 32.7019 69.0828 32.8605 69.1493 33.0472C69.2158 33.2339 69.2486 33.444 69.2486 33.6776V36.1101H68.4008V33.8988ZM73.8051 33.8988C73.8051 33.7462 73.7829 33.6098 73.7386 33.4896C73.6968 33.3668 73.6354 33.2633 73.5544 33.1797C73.4734 33.094 73.3737 33.0288 73.2556 32.9845C73.1401 32.9402 73.0088 32.9184 72.8614 32.9184C72.6994 32.9206 72.5532 32.95 72.4228 33.0067C72.2928 33.0608 72.1794 33.1371 72.0839 33.2351C71.9901 33.3336 71.9143 33.4504 71.855 33.5855C71.7988 33.7181 71.763 33.8643 71.7485 34.0241V36.1101H70.9007V32.196H71.7485V32.944C71.8883 32.6712 72.0801 32.4747 72.3235 32.3541C72.569 32.2313 72.8588 32.1687 73.193 32.1661C73.4214 32.1661 73.6256 32.2019 73.8051 32.2731C73.9866 32.3422 74.1405 32.4415 74.2658 32.5719C74.3911 32.7019 74.487 32.8605 74.5531 33.0472C74.6196 33.2339 74.6528 33.444 74.6528 33.6776V36.1101H73.8051V33.8988ZM76.816 34.4738C76.8479 34.631 76.8995 34.7721 76.9711 34.8975C77.0449 35.0228 77.1344 35.1297 77.2401 35.218C77.3458 35.3066 77.4647 35.374 77.5977 35.4209C77.7328 35.4677 77.879 35.4908 78.0363 35.4908C78.2524 35.4908 78.454 35.4515 78.6407 35.3731C78.8299 35.2943 78.997 35.1788 79.1419 35.0266L79.5916 35.4763C79.3998 35.6873 79.1662 35.8509 78.8913 35.9664C78.6185 36.082 78.3112 36.1395 77.9698 36.1395C77.6676 36.1395 77.3922 36.0917 77.1442 35.9958C76.8987 35.8999 76.6885 35.7648 76.5138 35.5905C76.3394 35.4157 76.2043 35.2069 76.1084 34.9639C76.0125 34.7205 75.9648 34.4516 75.9648 34.1566C75.9648 33.8617 76.0125 33.5927 76.1084 33.3494C76.2069 33.1064 76.3433 32.8975 76.5176 32.7228C76.6945 32.5484 76.9046 32.4133 77.148 32.3174C77.391 32.219 77.6578 32.1687 77.9476 32.1661C78.2916 32.1661 78.5853 32.2203 78.8287 32.3285C79.0742 32.4368 79.272 32.5902 79.422 32.7893C79.572 32.9883 79.6764 33.2304 79.7353 33.5152C79.7941 33.8003 79.8103 34.12 79.783 34.4738H76.816ZM77.9549 32.8148C77.8002 32.8148 77.6565 32.8396 77.524 32.8886C77.391 32.938 77.2746 33.0092 77.1736 33.1025C77.0756 33.1933 76.9929 33.3042 76.9268 33.4342C76.8629 33.562 76.8198 33.707 76.7977 33.8689H79.046C79.0388 33.7044 79.0081 33.5569 78.954 33.4269C78.8998 33.2965 78.8248 33.1861 78.7289 33.0953C78.6356 33.0041 78.5226 32.9355 78.3901 32.8886C78.2596 32.8396 78.1147 32.8148 77.9549 32.8148ZM83.9473 33.3161C83.8096 33.1763 83.6477 33.0668 83.4606 32.9883C83.2764 32.9074 83.065 32.8664 82.8267 32.8664C82.6571 32.8664 82.5011 32.8984 82.3587 32.9623C82.2164 33.0237 82.0932 33.1111 81.9901 33.224C81.8869 33.337 81.8059 33.4734 81.7467 33.6332C81.6904 33.7905 81.6623 33.9648 81.6623 34.1566C81.6623 34.3506 81.6904 34.5275 81.7467 34.6873C81.8059 34.8446 81.8869 34.981 81.9901 35.0965C82.0932 35.2094 82.2164 35.2981 82.3587 35.362C82.5011 35.4234 82.6571 35.4541 82.8267 35.4541C83.0748 35.4541 83.296 35.4149 83.4904 35.336C83.6869 35.2551 83.8514 35.1344 83.984 34.975L84.4558 35.4392C84.2789 35.663 84.0505 35.836 83.7704 35.9588C83.4904 36.0794 83.1635 36.1395 82.7901 36.1395C82.4998 36.1395 82.2334 36.0917 81.9901 35.9958C81.7467 35.8999 81.5378 35.7648 81.3635 35.5905C81.1917 35.4157 81.0566 35.2069 80.9581 34.9639C80.8622 34.7205 80.8145 34.4516 80.8145 34.1566C80.8145 33.8617 80.8622 33.5927 80.9581 33.3494C81.0566 33.1038 81.1917 32.8937 81.3635 32.7194C81.5378 32.5446 81.7467 32.4095 81.9901 32.3136C82.2334 32.2156 82.4998 32.1661 82.7901 32.1661C83.1464 32.1661 83.4597 32.219 83.7299 32.3247C84.0027 32.4304 84.2299 32.5792 84.4115 32.771L83.9473 33.3161ZM86.9054 32.196H88.0626V32.8004H86.9054V34.8719C86.9054 34.9771 86.9139 35.0658 86.931 35.137C86.951 35.206 86.9791 35.261 87.0158 35.3028C87.0529 35.3446 87.0972 35.374 87.1488 35.3915C87.2004 35.4085 87.2592 35.417 87.3257 35.417C87.4139 35.417 87.5051 35.4025 87.5985 35.3731C87.6939 35.3433 87.7996 35.2994 87.9152 35.2401L88.1291 35.8522C87.9744 35.9481 87.8158 36.0214 87.6534 36.0734C87.494 36.1224 87.3304 36.1467 87.1633 36.1467C87.0158 36.1467 86.876 36.1259 86.743 36.0841C86.6104 36.0423 86.4937 35.9763 86.3931 35.8855C86.2925 35.7942 86.2123 35.6775 86.1535 35.5351C86.0947 35.3927 86.0649 35.2205 86.0649 35.0189V32.8004H85.512V32.196H86.0649V31.2672H86.9054V32.196ZM89.4283 32.196H90.2684V36.1101H89.4283V32.196ZM89.8481 30.5814C89.9193 30.5814 89.9845 30.5938 90.0438 30.6185C90.1051 30.6428 90.158 30.6773 90.2019 30.7216C90.2462 30.7659 90.2808 30.8184 90.3055 30.8802C90.3298 30.939 90.3421 31.0042 90.3421 31.0754C90.3421 31.144 90.3298 31.2092 90.3055 31.2706C90.2808 31.3298 90.2462 31.3814 90.2019 31.4253C90.158 31.4696 90.1051 31.5055 90.0438 31.5323C89.9845 31.557 89.9193 31.5694 89.8481 31.5694C89.7795 31.5694 89.7143 31.557 89.6529 31.5323C89.5941 31.5055 89.5425 31.4696 89.4982 31.4253C89.4539 31.3814 89.4181 31.3298 89.3912 31.2706C89.3665 31.2092 89.3545 31.144 89.3545 31.0754C89.3545 31.0042 89.3665 30.939 89.3912 30.8802C89.4181 30.8184 89.4539 30.7659 89.4982 30.7216C89.5425 30.6773 89.5941 30.6428 89.6529 30.6185C89.7143 30.5938 89.7795 30.5814 89.8481 30.5814ZM94.9433 33.8988C94.9433 33.7462 94.9212 33.6098 94.8769 33.4896C94.8351 33.3668 94.7737 33.2633 94.6927 33.1797C94.6117 33.094 94.512 33.0288 94.3939 32.9845C94.2784 32.9402 94.1471 32.9184 93.9997 32.9184C93.8377 32.9206 93.6915 32.95 93.5611 33.0067C93.4311 33.0608 93.3177 33.1371 93.2222 33.2351C93.1289 33.3336 93.0526 33.4504 92.9933 33.5855C92.9371 33.7181 92.9013 33.8643 92.8868 34.0241V36.1101H92.039V32.196H92.8868V32.944C93.0266 32.6712 93.2184 32.4747 93.4618 32.3541C93.7073 32.2313 93.9971 32.1687 94.3313 32.1661C94.5602 32.1661 94.7639 32.2019 94.9433 32.2731C95.1249 32.3422 95.2788 32.4415 95.4041 32.5719C95.5294 32.7019 95.6253 32.8605 95.6914 33.0472C95.7579 33.2339 95.7911 33.444 95.7911 33.6776V36.1101H94.9433V33.8988ZM101.01 35.7192C101.01 36.0044 100.961 36.2601 100.862 36.486C100.767 36.7145 100.63 36.9076 100.453 37.0648C100.276 37.2243 100.063 37.3474 99.8122 37.4331C99.5616 37.5192 99.2824 37.5623 98.9755 37.5623C98.6682 37.5623 98.3797 37.5166 98.1094 37.4259C97.8413 37.3351 97.5873 37.2085 97.3465 37.0461L97.7075 36.4639C97.8916 36.6041 98.0821 36.7106 98.2786 36.7844C98.4777 36.8607 98.6976 36.899 98.9385 36.899C99.1251 36.899 99.2935 36.8718 99.4435 36.8176C99.5957 36.7635 99.7249 36.6863 99.8306 36.5853C99.9388 36.4847 100.022 36.3633 100.081 36.2205C100.14 36.0781 100.169 35.9183 100.169 35.7414V35.2623C100.034 35.4784 99.8574 35.6433 99.6388 35.7563C99.4227 35.8692 99.1669 35.9259 98.8724 35.9259C98.6068 35.9259 98.3647 35.8803 98.1461 35.7895C97.93 35.6962 97.7446 35.5658 97.5894 35.3987C97.4347 35.2316 97.3145 35.0326 97.2284 34.8015C97.1449 34.5684 97.1031 34.3114 97.1031 34.0313C97.1031 33.756 97.1449 33.5054 97.2284 33.2795C97.3119 33.051 97.43 32.8545 97.5822 32.6895C97.7348 32.525 97.9176 32.3971 98.1316 32.3063C98.3451 32.2156 98.5821 32.1687 98.8425 32.1661C99.1452 32.164 99.4065 32.2203 99.6277 32.3358C99.8515 32.4487 100.032 32.6137 100.169 32.8298V32.196H101.01V35.7192ZM99.0416 32.8148C98.8745 32.8148 98.7211 32.8456 98.5813 32.9074C98.441 32.9687 98.3204 33.0544 98.2198 33.1652C98.1214 33.2735 98.0442 33.4035 97.9875 33.5557C97.9313 33.7057 97.9018 33.8715 97.8993 34.0535C97.9018 34.2329 97.93 34.3987 97.9841 34.5509C98.0404 34.7035 98.118 34.8348 98.216 34.9452C98.317 35.0535 98.4372 35.1383 98.5774 35.1996C98.7172 35.261 98.8724 35.2917 99.0416 35.2917C99.2087 35.2917 99.3613 35.261 99.499 35.1996C99.6362 35.1383 99.7543 35.0535 99.8527 34.9452C99.9533 34.8348 100.031 34.7035 100.085 34.5509C100.141 34.3987 100.169 34.2329 100.169 34.0535C100.169 33.8715 100.141 33.7044 100.085 33.5523C100.031 33.3997 99.9533 33.2696 99.8527 33.1614C99.7543 33.051 99.6362 32.9662 99.499 32.9074C99.3613 32.8456 99.2087 32.8148 99.0416 32.8148ZM108.995 32.2914C108.901 32.1883 108.798 32.0962 108.685 32.0152C108.572 31.9317 108.454 31.8618 108.331 31.8051C108.208 31.7484 108.08 31.7058 107.948 31.6759C107.818 31.644 107.687 31.6282 107.557 31.6282C107.299 31.6282 107.058 31.6772 106.835 31.7757C106.611 31.8737 106.416 32.008 106.249 32.1772C106.084 32.3469 105.954 32.5472 105.858 32.7782C105.762 33.0067 105.714 33.2526 105.714 33.5152C105.714 33.7756 105.762 34.0215 105.858 34.2526C105.954 34.481 106.084 34.6813 106.249 34.8531C106.416 35.0228 106.611 35.1566 106.835 35.2551C107.058 35.3531 107.299 35.4025 107.557 35.4025C107.818 35.4025 108.073 35.3471 108.324 35.2367C108.574 35.1259 108.798 34.975 108.995 34.7832L109.511 35.3211C109.38 35.449 109.237 35.5658 109.079 35.6715C108.925 35.7746 108.761 35.8633 108.589 35.937C108.417 36.0108 108.24 36.0683 108.059 36.1101C107.877 36.1493 107.695 36.1689 107.513 36.1689C107.135 36.1689 106.782 36.1016 106.455 35.9664C106.128 35.8288 105.844 35.6408 105.604 35.4025C105.363 35.1643 105.174 34.8838 105.036 34.562C104.899 34.2402 104.83 33.8937 104.83 33.5228C104.83 33.2769 104.862 33.0425 104.925 32.8187C104.989 32.5928 105.079 32.3827 105.195 32.1883C105.31 31.9944 105.449 31.8175 105.611 31.6576C105.776 31.4978 105.959 31.3627 106.16 31.2523C106.362 31.1393 106.579 31.0519 106.813 30.9906C107.046 30.9292 107.289 30.8985 107.542 30.8985C107.724 30.8985 107.905 30.9168 108.084 30.9539C108.266 30.9906 108.441 31.0434 108.608 31.112C108.777 31.1811 108.937 31.2646 109.087 31.3627C109.239 31.4611 109.378 31.5715 109.503 31.6947L108.995 32.2914ZM113.17 35.6382C113.03 35.8079 112.85 35.9357 112.632 36.0214C112.413 36.105 112.16 36.1467 111.873 36.1467C111.661 36.1467 111.469 36.116 111.298 36.0547C111.128 35.9907 110.983 35.9051 110.862 35.7968C110.745 35.6864 110.654 35.5572 110.59 35.4098C110.526 35.2623 110.494 35.1024 110.494 34.9307C110.494 34.7538 110.527 34.594 110.593 34.4516C110.66 34.3067 110.756 34.1826 110.881 34.0791C111.006 33.9759 111.161 33.8975 111.345 33.8434C111.53 33.7867 111.74 33.7585 111.976 33.7585H113.162V33.626C113.162 33.3702 113.084 33.1712 112.927 33.0288C112.772 32.8865 112.538 32.8148 112.226 32.8148C112.037 32.8148 111.845 32.8494 111.651 32.9184C111.46 32.9871 111.266 33.0876 111.069 33.2206L110.723 32.675C110.86 32.5915 110.99 32.5191 111.113 32.4577C111.236 32.3937 111.363 32.3409 111.493 32.2991C111.623 32.2548 111.762 32.2215 111.909 32.1994C112.057 32.1772 112.224 32.1661 112.41 32.1661C112.664 32.1661 112.887 32.1981 113.081 32.262C113.278 32.3234 113.444 32.4133 113.579 32.5314C113.714 32.649 113.816 32.7931 113.885 32.9623C113.956 33.132 113.993 33.3238 113.996 33.5373L114.003 36.1101H113.17V35.6382ZM112.049 35.4984C112.199 35.4984 112.339 35.4784 112.47 35.4392C112.6 35.4 112.714 35.3458 112.812 35.2772C112.913 35.2082 112.994 35.1259 113.056 35.03C113.117 34.9345 113.154 34.8309 113.166 34.7205V34.3629H112.101C111.824 34.3629 111.618 34.4047 111.486 34.4883C111.355 34.5718 111.29 34.7095 111.29 34.9013C111.29 35.0829 111.356 35.2278 111.489 35.336C111.624 35.4443 111.811 35.4984 112.049 35.4984ZM115.654 32.196H116.501V32.9734C116.634 32.7083 116.815 32.508 117.043 32.3728C117.272 32.2377 117.543 32.1687 117.858 32.1661V32.9329C117.661 32.9257 117.483 32.9478 117.323 32.9994C117.163 33.051 117.025 33.1273 116.907 33.2279C116.791 33.3285 116.699 33.4504 116.63 33.5927C116.562 33.733 116.519 33.889 116.501 34.0607V36.1101H115.654V32.196ZM119.474 34.4738C119.506 34.631 119.558 34.7721 119.629 34.8975C119.703 35.0228 119.792 35.1297 119.898 35.218C120.004 35.3066 120.123 35.374 120.256 35.4209C120.391 35.4677 120.537 35.4908 120.694 35.4908C120.91 35.4908 121.112 35.4515 121.299 35.3731C121.488 35.2943 121.655 35.1788 121.8 35.0266L122.25 35.4763C122.058 35.6873 121.825 35.8509 121.549 35.9664C121.277 36.082 120.97 36.1395 120.628 36.1395C120.326 36.1395 120.051 36.0917 119.802 35.9958C119.557 35.8999 119.347 35.7648 119.172 35.5905C118.998 35.4157 118.862 35.2069 118.766 34.9639C118.671 34.7205 118.623 34.4516 118.623 34.1566C118.623 33.8617 118.671 33.5927 118.766 33.3494C118.865 33.1064 119.001 32.8975 119.176 32.7228C119.353 32.5484 119.563 32.4133 119.806 32.3174C120.049 32.219 120.316 32.1687 120.606 32.1661C120.95 32.1661 121.243 32.2203 121.487 32.3285C121.733 32.4368 121.93 32.5902 122.08 32.7893C122.23 32.9883 122.335 33.2304 122.393 33.5152C122.453 33.8003 122.468 34.12 122.441 34.4738H119.474ZM120.613 32.8148C120.458 32.8148 120.315 32.8396 120.182 32.8886C120.049 32.938 119.933 33.0092 119.832 33.1025C119.734 33.1933 119.651 33.3042 119.585 33.4342C119.521 33.562 119.478 33.707 119.456 33.8689H121.704C121.697 33.7044 121.666 33.5569 121.612 33.4269C121.558 33.2965 121.483 33.1861 121.387 33.0953C121.294 33.0041 121.181 32.9355 121.048 32.8886C120.918 32.8396 120.773 32.8148 120.613 32.8148ZM126.506 32.8004H125.99V32.196H126.506V31.8123C126.506 31.5813 126.544 31.3814 126.62 31.2118C126.699 31.0421 126.801 30.9019 126.926 30.7915C127.052 30.6811 127.195 30.5989 127.358 30.5447C127.52 30.4906 127.685 30.4633 127.855 30.4633C127.973 30.4633 128.092 30.4808 128.213 30.5153C128.333 30.5469 128.445 30.5886 128.548 30.6406L128.371 31.2889C128.3 31.2595 128.221 31.2314 128.135 31.2045C128.052 31.1773 127.966 31.1636 127.877 31.1636C127.806 31.1636 127.737 31.1747 127.671 31.1969C127.607 31.2165 127.55 31.2484 127.501 31.2928C127.454 31.3371 127.417 31.3934 127.387 31.4624C127.36 31.531 127.347 31.6133 127.347 31.7092V32.196H128.371V32.8004H127.347V36.1101H126.506V32.8004ZM131.355 32.1661C131.658 32.1661 131.934 32.2143 132.185 32.3102C132.435 32.4061 132.65 32.5412 132.83 32.7155C133.009 32.8899 133.148 33.0987 133.246 33.3421C133.347 33.5855 133.397 33.8545 133.397 34.1494C133.397 34.4439 133.347 34.7146 133.246 34.9601C133.148 35.2035 133.009 35.4123 132.83 35.5867C132.65 35.761 132.435 35.8974 132.185 35.9958C131.934 36.0917 131.658 36.1395 131.355 36.1395C131.051 36.1395 130.773 36.0917 130.522 35.9958C130.272 35.8974 130.055 35.761 129.874 35.5867C129.694 35.4123 129.554 35.2035 129.453 34.9601C129.355 34.7146 129.306 34.4439 129.306 34.1494C129.306 33.8545 129.355 33.5855 129.453 33.3421C129.554 33.0987 129.694 32.8899 129.874 32.7155C130.055 32.5412 130.272 32.4061 130.522 32.3102C130.773 32.2143 131.051 32.1661 131.355 32.1661ZM131.355 32.8519C131.178 32.8519 131.016 32.8839 130.869 32.9478C130.722 33.0118 130.595 33.1013 130.489 33.2168C130.384 33.3323 130.301 33.47 130.242 33.6294C130.183 33.7892 130.154 33.9648 130.154 34.1566C130.154 34.3506 130.183 34.5288 130.242 34.6912C130.301 34.8531 130.384 34.9921 130.489 35.1076C130.595 35.2205 130.722 35.3092 130.869 35.3731C131.016 35.4366 131.178 35.4686 131.355 35.4686C131.53 35.4686 131.69 35.4366 131.834 35.3731C131.982 35.3092 132.109 35.2205 132.214 35.1076C132.32 34.9921 132.402 34.8531 132.461 34.6912C132.52 34.5288 132.55 34.3506 132.55 34.1566C132.55 33.9648 132.52 33.7892 132.461 33.6294C132.402 33.47 132.32 33.3323 132.214 33.2168C132.109 33.1013 131.982 33.0118 131.834 32.9478C131.69 32.8839 131.53 32.8519 131.355 32.8519ZM134.798 32.196H135.645V32.9734C135.778 32.7083 135.959 32.508 136.188 32.3728C136.416 32.2377 136.688 32.1687 137.002 32.1661V32.9329C136.805 32.9257 136.627 32.9478 136.468 32.9994C136.308 33.051 136.169 33.1273 136.051 33.2279C135.936 33.3285 135.843 33.4504 135.775 33.5927C135.706 33.733 135.663 33.889 135.645 34.0607V36.1101H134.798V32.196ZM143.01 30.9501C143.278 30.9501 143.519 30.9795 143.733 31.0383C143.946 31.0976 144.128 31.1824 144.278 31.2928C144.428 31.4036 144.542 31.5387 144.621 31.6981C144.702 31.8579 144.743 32.0387 144.743 32.2399C144.743 32.3852 144.722 32.5203 144.68 32.6456C144.638 32.771 144.578 32.8839 144.499 32.9845C144.421 33.083 144.325 33.1665 144.212 33.2351C144.102 33.3042 143.976 33.3557 143.836 33.3898C144.01 33.4197 144.165 33.4721 144.301 33.5484C144.438 33.6221 144.553 33.7155 144.647 33.8284C144.743 33.9393 144.815 34.068 144.864 34.2155C144.916 34.3604 144.942 34.5202 144.942 34.6946C144.942 34.9158 144.899 35.1135 144.813 35.2883C144.727 35.4626 144.603 35.6114 144.44 35.7341C144.278 35.8543 144.081 35.9481 143.847 36.0142C143.616 36.0781 143.354 36.1101 143.062 36.1101H140.77V30.9501H143.01ZM142.966 33.0953C143.244 33.0953 143.46 33.0335 143.615 32.9108C143.772 32.788 143.851 32.6111 143.851 32.3801C143.851 32.1563 143.772 31.9858 143.615 31.8678C143.46 31.7476 143.244 31.6896 142.966 31.6947H141.639V33.0953H142.966ZM142.966 35.3654C143.308 35.3706 143.573 35.3066 143.762 35.1741C143.954 35.039 144.05 34.8446 144.05 34.5914C144.05 34.4738 144.025 34.368 143.976 34.2747C143.927 34.1814 143.856 34.1025 143.762 34.0386C143.669 33.9725 143.555 33.9218 143.42 33.8877C143.287 33.8532 143.136 33.8374 142.966 33.8395H141.639V35.3654H142.966ZM146.921 34.4738C146.953 34.631 147.005 34.7721 147.076 34.8975C147.15 35.0228 147.239 35.1297 147.345 35.218C147.451 35.3066 147.57 35.374 147.703 35.4209C147.838 35.4677 147.984 35.4908 148.141 35.4908C148.357 35.4908 148.559 35.4515 148.746 35.3731C148.935 35.2943 149.102 35.1788 149.247 35.0266L149.697 35.4763C149.505 35.6873 149.272 35.8509 148.996 35.9664C148.724 36.082 148.417 36.1395 148.075 36.1395C147.773 36.1395 147.498 36.0917 147.249 35.9958C147.004 35.8999 146.794 35.7648 146.619 35.5905C146.445 35.4157 146.309 35.2069 146.213 34.9639C146.118 34.7205 146.07 34.4516 146.07 34.1566C146.07 33.8617 146.118 33.5927 146.213 33.3494C146.312 33.1064 146.448 32.8975 146.623 32.7228C146.8 32.5484 147.01 32.4133 147.253 32.3174C147.496 32.219 147.763 32.1687 148.053 32.1661C148.397 32.1661 148.69 32.2203 148.934 32.3285C149.18 32.4368 149.377 32.5902 149.527 32.7893C149.677 32.9883 149.782 33.2304 149.84 33.5152C149.9 33.8003 149.915 34.12 149.889 34.4738H146.921ZM148.06 32.8148C147.905 32.8148 147.762 32.8396 147.629 32.8886C147.496 32.938 147.38 33.0092 147.279 33.1025C147.181 33.1933 147.098 33.3042 147.032 33.4342C146.968 33.562 146.925 33.707 146.903 33.8689H149.151C149.144 33.7044 149.113 33.5569 149.059 33.4269C149.005 33.2965 148.93 33.1861 148.834 33.0953C148.741 33.0041 148.628 32.9355 148.495 32.8886C148.365 32.8396 148.22 32.8148 148.06 32.8148ZM152.283 32.196H153.441V32.8004H152.283V34.8719C152.283 34.9771 152.292 35.0658 152.309 35.137C152.329 35.206 152.357 35.261 152.394 35.3028C152.431 35.3446 152.475 35.374 152.526 35.3915C152.578 35.4085 152.637 35.417 152.703 35.417C152.792 35.417 152.883 35.4025 152.976 35.3731C153.072 35.3433 153.178 35.2994 153.293 35.2401L153.507 35.8522C153.352 35.9481 153.194 36.0214 153.032 36.0734C152.872 36.1224 152.708 36.1467 152.541 36.1467C152.394 36.1467 152.254 36.1259 152.121 36.0841C151.989 36.0423 151.872 35.9763 151.771 35.8855C151.67 35.7942 151.59 35.6775 151.531 35.5351C151.472 35.3927 151.443 35.2205 151.443 35.0189V32.8004H150.89V32.196H151.443V31.2672H152.283V32.196ZM155.707 32.196H156.865V32.8004H155.707V34.8719C155.707 34.9771 155.716 35.0658 155.733 35.137C155.753 35.206 155.781 35.261 155.818 35.3028C155.855 35.3446 155.899 35.374 155.951 35.3915C156.002 35.4085 156.061 35.417 156.128 35.417C156.216 35.417 156.307 35.4025 156.401 35.3731C156.496 35.3433 156.602 35.2994 156.718 35.2401L156.931 35.8522C156.776 35.9481 156.618 36.0214 156.456 36.0734C156.296 36.1224 156.133 36.1467 155.966 36.1467C155.818 36.1467 155.678 36.1259 155.546 36.0841C155.413 36.0423 155.296 35.9763 155.195 35.8855C155.095 35.7942 155.015 35.6775 154.956 35.5351C154.897 35.3927 154.867 35.2205 154.867 35.0189V32.8004H154.315V32.196H154.867V31.2672H155.707V32.196ZM158.584 34.4738C158.616 34.631 158.667 34.7721 158.738 34.8975C158.812 35.0228 158.902 35.1297 159.007 35.218C159.113 35.3066 159.232 35.374 159.365 35.4209C159.5 35.4677 159.646 35.4908 159.804 35.4908C160.02 35.4908 160.221 35.4515 160.408 35.3731C160.597 35.2943 160.764 35.1788 160.909 35.0266L161.359 35.4763C161.167 35.6873 160.934 35.8509 160.659 35.9664C160.386 36.082 160.079 36.1395 159.737 36.1395C159.435 36.1395 159.16 36.0917 158.911 35.9958C158.666 35.8999 158.456 35.7648 158.282 35.5905C158.107 35.4157 157.972 35.2069 157.876 34.9639C157.78 34.7205 157.732 34.4516 157.732 34.1566C157.732 33.8617 157.78 33.5927 157.876 33.3494C157.974 33.1064 158.111 32.8975 158.285 32.7228C158.462 32.5484 158.672 32.4133 158.915 32.3174C159.159 32.219 159.425 32.1687 159.715 32.1661C160.059 32.1661 160.353 32.2203 160.596 32.3285C160.841 32.4368 161.04 32.5902 161.189 32.7893C161.339 32.9883 161.444 33.2304 161.503 33.5152C161.562 33.8003 161.578 34.12 161.551 34.4738H158.584ZM159.723 32.8148C159.567 32.8148 159.424 32.8396 159.291 32.8886C159.159 32.938 159.042 33.0092 158.941 33.1025C158.843 33.1933 158.761 33.3042 158.694 33.4342C158.63 33.562 158.587 33.707 158.565 33.8689H160.813C160.806 33.7044 160.775 33.5569 160.721 33.4269C160.667 33.2965 160.592 33.1861 160.497 33.0953C160.403 33.0041 160.29 32.9355 160.157 32.8886C160.027 32.8396 159.882 32.8148 159.723 32.8148ZM162.95 32.196H163.798V32.9734C163.931 32.7083 164.112 32.508 164.34 32.3728C164.568 32.2377 164.84 32.1687 165.155 32.1661V32.9329C164.958 32.9257 164.78 32.9478 164.62 32.9994C164.46 33.051 164.321 33.1273 164.204 33.2279C164.088 33.3285 163.996 33.4504 163.927 33.5927C163.858 33.733 163.815 33.889 163.798 34.0607V36.1101H162.95V32.196ZM168.922 30.9501H169.792V33.213H172.527V30.9501H173.396V36.1101H172.527V33.9503H169.792V36.1101H168.922V30.9501ZM175.7 34.4738C175.732 34.631 175.784 34.7721 175.855 34.8975C175.929 35.0228 176.018 35.1297 176.124 35.218C176.229 35.3066 176.349 35.374 176.481 35.4209C176.616 35.4677 176.763 35.4908 176.92 35.4908C177.136 35.4908 177.338 35.4515 177.524 35.3731C177.714 35.2943 177.881 35.1788 178.026 35.0266L178.475 35.4763C178.284 35.6873 178.05 35.8509 177.775 35.9664C177.503 36.082 177.195 36.1395 176.854 36.1395C176.552 36.1395 176.276 36.0917 176.028 35.9958C175.782 35.8999 175.572 35.7648 175.398 35.5905C175.224 35.4157 175.088 35.2069 174.993 34.9639C174.897 34.7205 174.849 34.4516 174.849 34.1566C174.849 33.8617 174.897 33.5927 174.993 33.3494C175.091 33.1064 175.227 32.8975 175.402 32.7228C175.579 32.5484 175.789 32.4133 176.032 32.3174C176.275 32.219 176.542 32.1687 176.832 32.1661C177.176 32.1661 177.469 32.2203 177.712 32.3285C177.958 32.4368 178.156 32.5902 178.306 32.7893C178.456 32.9883 178.56 33.2304 178.619 33.5152C178.678 33.8003 178.694 34.12 178.667 34.4738H175.7ZM176.839 32.8148C176.684 32.8148 176.541 32.8396 176.408 32.8886C176.275 32.938 176.158 33.0092 176.058 33.1025C175.959 33.1933 175.877 33.3042 175.811 33.4342C175.747 33.562 175.704 33.707 175.682 33.8689H177.93C177.922 33.7044 177.892 33.5569 177.838 33.4269C177.784 33.2965 177.709 33.1861 177.613 33.0953C177.52 33.0041 177.407 32.9355 177.274 32.8886C177.144 32.8396 176.999 32.8148 176.839 32.8148ZM182.311 35.6382C182.17 35.8079 181.991 35.9357 181.772 36.0214C181.554 36.105 181.3 36.1467 181.013 36.1467C180.802 36.1467 180.61 36.116 180.438 36.0547C180.268 35.9907 180.124 35.9051 180.003 35.7968C179.885 35.6864 179.794 35.5572 179.731 35.4098C179.667 35.2623 179.635 35.1024 179.635 34.9307C179.635 34.7538 179.668 34.594 179.734 34.4516C179.8 34.3067 179.896 34.1826 180.022 34.0791C180.147 33.9759 180.302 33.8975 180.486 33.8434C180.67 33.7867 180.881 33.7585 181.116 33.7585H182.303V33.626C182.303 33.3702 182.224 33.1712 182.067 33.0288C181.912 32.8865 181.679 32.8148 181.367 32.8148C181.178 32.8148 180.986 32.8494 180.792 32.9184C180.6 32.9871 180.406 33.0876 180.21 33.2206L179.863 32.675C180.001 32.5915 180.131 32.5191 180.254 32.4577C180.377 32.3937 180.503 32.3409 180.633 32.2991C180.764 32.2548 180.903 32.2215 181.05 32.1994C181.197 32.1772 181.364 32.1661 181.551 32.1661C181.804 32.1661 182.028 32.1981 182.222 32.262C182.418 32.3234 182.585 32.4133 182.72 32.5314C182.855 32.649 182.957 32.7931 183.025 32.9623C183.097 33.132 183.134 33.3238 183.136 33.5373L183.143 36.1101H182.311V35.6382ZM181.19 35.4984C181.34 35.4984 181.48 35.4784 181.61 35.4392C181.74 35.4 181.854 35.3458 181.953 35.2772C182.054 35.2082 182.135 35.1259 182.196 35.03C182.258 34.9345 182.294 34.8309 182.307 34.7205V34.3629H181.242C180.964 34.3629 180.759 34.4047 180.626 34.4883C180.496 34.5718 180.431 34.7095 180.431 34.9013C180.431 35.0829 180.497 35.2278 180.63 35.336C180.765 35.4443 180.952 35.4984 181.19 35.4984ZM185.568 34.9528C185.568 35.1123 185.6 35.2303 185.664 35.3066C185.73 35.3804 185.819 35.417 185.929 35.417C185.989 35.417 186.05 35.4072 186.114 35.3876C186.177 35.3654 186.246 35.3335 186.32 35.2917L186.438 35.9332C186.182 36.0756 185.937 36.1467 185.701 36.1467C185.566 36.1467 185.438 36.1237 185.318 36.0768C185.2 36.0278 185.096 35.9579 185.008 35.8667C184.922 35.7734 184.853 35.6591 184.801 35.524C184.752 35.3863 184.728 35.2278 184.728 35.0488V30.6406H185.568V34.9528ZM188.717 32.196H189.874V32.8004H188.717V34.8719C188.717 34.9771 188.725 35.0658 188.743 35.137C188.762 35.206 188.791 35.261 188.827 35.3028C188.864 35.3446 188.909 35.374 188.96 35.3915C189.012 35.4085 189.071 35.417 189.137 35.417C189.225 35.417 189.317 35.4025 189.41 35.3731C189.506 35.3433 189.611 35.2994 189.727 35.2401L189.941 35.8522C189.786 35.9481 189.627 36.0214 189.465 36.0734C189.305 36.1224 189.142 36.1467 188.975 36.1467C188.827 36.1467 188.687 36.1259 188.555 36.0841C188.422 36.0423 188.305 35.9763 188.205 35.8855C188.104 35.7942 188.024 35.6775 187.965 35.5351C187.906 35.3927 187.877 35.2205 187.877 35.0189V32.8004H187.324V32.196H187.877V31.2672H188.717V32.196ZM194.188 33.8988C194.188 33.7462 194.166 33.6098 194.122 33.4896C194.08 33.3668 194.019 33.2633 193.937 33.1797C193.856 33.094 193.757 33.0288 193.639 32.9845C193.524 32.9402 193.392 32.9184 193.245 32.9184C193.07 32.9206 192.913 32.9551 192.773 33.0216C192.635 33.0855 192.518 33.1737 192.423 33.2867C192.327 33.3996 192.253 33.5339 192.202 33.6886C192.15 33.8408 192.124 34.0066 192.124 34.1861V36.1101H191.276V30.6406H192.124V32.9589C192.264 32.681 192.457 32.4807 192.703 32.3579C192.949 32.2326 193.24 32.1687 193.576 32.1661C193.805 32.1661 194.009 32.2019 194.188 32.2731C194.37 32.3422 194.523 32.4415 194.649 32.5719C194.774 32.7019 194.87 32.8605 194.936 33.0472C195.003 33.2339 195.036 33.444 195.036 33.6776V36.1101H194.188V33.8988Z" fill="black"/>
<defs>
<linearGradient id="paint0_linear_1991_8026" x1="37.292" y1="17.7282" x2="32.4949" y2="23.0259" gradientUnits="userSpaceOnUse">
<stop stop-color="#59AA4B"/>
<stop offset="1" stop-color="#489C48"/>
</linearGradient>
<linearGradient id="paint1_linear_1991_8026" x1="34.0383" y1="18.1871" x2="30.4509" y2="23.9435" gradientUnits="userSpaceOnUse">
<stop stop-color="#53A848"/>
<stop offset="1" stop-color="#42A14B"/>
</linearGradient>
<linearGradient id="paint2_linear_1991_8026" x1="38.5017" y1="18.8128" x2="18.9797" y2="34.2885" gradientUnits="userSpaceOnUse">
<stop stop-color="#55A94B"/>
<stop offset="1" stop-color="#1C8447"/>
</linearGradient>
<linearGradient id="paint3_linear_1991_8026" x1="21.4385" y1="15.1501" x2="21.4385" y2="3.61206e-06" gradientUnits="userSpaceOnUse">
<stop stop-color="#EB6628"/>
<stop offset="1" stop-color="#EE7A26"/>
</linearGradient>
</defs>
</svg>
